<?xml version="1.0" standalone="no"?>
<!DOCTYPE svg PUBLIC "-//W3C//DTD SVG 20010904//EN"
 "http://www.w3.org/TR/2001/REC-SVG-20010904/DTD/svg10.dtd">
<svg version="1.0" xmlns="http://www.w3.org/2000/svg"
 width="182.000000pt" height="173.000000pt" viewBox="0 0 182.000000 173.000000"
 preserveAspectRatio="xMidYMid meet">

<g transform="translate(0.000000,173.000000) scale(0.100000,-0.100000)"
fill="#000000" stroke="none">
<path d="M888 1593 c-38 -24 -60 -82 -48 -123 12 -43 35 -67 76 -80 106 -35
191 97 116 181 -35 39 -102 49 -144 22z"/>
<path d="M715 1354 c-54 -18 -105 -40 -111 -46 -86 -92 -134 -156 -134 -178 0
-33 17 -50 51 -50 22 0 43 16 95 74 49 54 77 77 106 85 22 7 41 11 43 9 2 -2
-14 -64 -35 -138 l-39 -135 15 -115 15 -115 -107 -103 c-77 -75 -109 -112
-113 -135 l-7 -32 -79 0 c-74 0 -80 -2 -83 -21 -4 -27 38 -77 83 -98 31 -15
35 -21 35 -56 0 -30 6 -43 27 -60 51 -40 123 -3 123 61 l0 29 279 0 280 0 3
-37 c4 -46 43 -79 82 -69 40 10 66 41 66 79 0 28 5 34 43 50 54 22 122 89 114
111 -5 13 -27 16 -137 16 -128 0 -130 0 -130 23 0 12 -17 76 -37 141 l-37 119
-103 90 c-57 50 -103 95 -103 101 1 19 68 247 75 254 3 3 9 2 13 -4 4 -6 44
-56 90 -112 54 -66 90 -102 102 -102 26 0 60 34 60 59 0 11 -51 82 -112 157
l-113 138 -75 1 c-61 0 -81 4 -107 23 -17 12 -33 22 -35 21 -1 0 -48 -16 -103
-35z m217 -569 l97 -86 31 -97 c17 -53 33 -103 35 -109 4 -10 -49 -13 -243
-13 l-247 1 114 108 114 109 -8 86 c-4 48 -3 86 2 86 5 0 52 -38 105 -85z
m444 -364 c-3 -5 -21 -16 -40 -25 -30 -14 -86 -16 -438 -16 -401 0 -463 5
-488 35 -11 13 46 15 479 15 280 0 490 -4 487 -9z m-831 -121 c0 -16 -6 -26
-18 -28 -19 -4 -32 20 -23 44 9 25 41 13 41 -16z m710 0 c0 -29 -32 -41 -41
-16 -9 24 4 48 23 44 12 -2 18 -12 18 -28z"/>
<path d="M373 944 c-10 -28 12 -35 103 -32 84 3 89 4 92 26 3 21 1 22 -93 22
-78 0 -97 -3 -102 -16z"/>
<path d="M242 807 c-26 -31 1 -38 154 -35 141 3 149 4 149 23 0 19 -8 20 -146
23 -111 2 -149 -1 -157 -11z"/>
<path d="M106 183 c-4 -9 -3 -20 2 -25 4 -4 363 -7 798 -6 781 3 789 3 789 23
0 20 -8 20 -791 23 -732 2 -792 1 -798 -15z"/>
</g>
</svg>
